<svg id="Capa_1" data-name="Capa 1" xmlns="http://www.w3.org/2000/svg" viewBox="0 0 1217.5 969.09"><defs><style>.cls-1{fill:#cbcdd0;}.cls-2{fill:none;stroke:#000;stroke-miterlimit:10;}.cls-3{fill:#a12226;}.cls-4{fill:#ced3cc;}.cls-5{fill:#c2583b;}.cls-6{fill:#6b574e;}.cls-7{fill:#6e2117;}.cls-8{fill:#883919;}</style></defs><title>jose_ganso</title><path class="cls-1" d="M1204.59,45.39l292.78,449.55c12.64,32.68,38.06,111.69,18.45,209.79A376.48,376.48,0,0,1,1442,863.8,344.93,344.93,0,0,1,1250.7,992.9c-36.09,9.32-82.86,25.43-145.24,20.74-27.58-2.07-72.94-9-124.49-34.58L305.5,981.37Z" transform="translate(-305.5 -45.39)"/><path class="cls-2" d="M1158.48,488" transform="translate(-305.5 -45.39)"/><path class="cls-3" d="M1198.05,107.64l263.62,404.77c10.61,31.82,28.8,101.18,10.34,185.4-16.81,76.71-55.44,126.61-66.85,140.63-29.17,35.84-59.16,56.79-73.77,66.85-46.06,31.69-87.34,44.85-99.13,48.42-58.77,17.74-107,15-122.19,13.83a323.11,323.11,0,0,1-96.82-23.06L388.49,950.4Z" transform="translate(-305.5 -45.39)"/><path class="cls-4" d="M831.12,843.71l94.82-28.45,75.86-22.12,19-9.48,15.8-37.93,9.48-37.93,6.32-37.93V322.19l6.33-31.61,12.64-44.25,12.64-19,15.8-28.45,19-12.64,28.45-9.48h56.89l22.12,9.48,12.65,22.13v22.12l12.64,22.13,19,28.44,31.61,34.77-9.48,19-15.8,6.33L1242,328.51l-34.77,12.65-6.32,6.32-19,158V619.3l101.15,246.54q1.67,50.26,3.32,100.54L831.12,973.3c-343,7-442.16-5.7-443.78-23C385.71,932.7,483,901.47,831.12,843.71Z" transform="translate(-305.5 -45.39)"/><path class="cls-2" d="M1200.93,224.21v0Z" transform="translate(-305.5 -45.39)"/><polyline class="cls-5" points="961.8 276.8 994.99 268.9 994.99 268.9 963.38 234.13 934.85 187.74 933.36 181.98 933.36 175.66 914.39 175.66 895.43 178.82 889.11 188.3 879.62 213.59 873.3 251.51 882.78 279.96 913.96 291.32 936.52 283.12 971.28 295.76 987.09 289.44 990.13 283.36 974.45 286.28 961.8 276.8"/><ellipse class="cls-6" cx="1148.93" cy="219.84" rx="9.86" ry="16.03" transform="translate(177.47 1136.15) rotate(-66.13)"/><ellipse class="cls-7" cx="1232.54" cy="277.94" rx="3.16" ry="6.32" transform="translate(-141.03 907.55) rotate(-45)"/><polyline class="cls-8" points="873.3 252.6 911.23 261 933.36 264.16 955.48 270.48 961.8 276.8 942.84 273.64 927.03 270.48 904.91 270.48 879.87 271.21 880.24 272.33"/><polyline class="cls-5" points="994.99 268.9 988.67 284.7 976.31 285.94 972.87 284.7 960.22 275.22"/></svg>