<svg xmlns="http://www.w3.org/2000/svg" viewBox="0 0 338.63 497.66"><defs><style>.cls-1,.cls-7{fill:#1d1d1b;}.cls-2{fill:#6dc9f0;}.cls-2,.cls-3,.cls-4,.cls-5,.cls-6,.cls-7{stroke:#1d1d1b;stroke-miterlimit:10;}.cls-3{fill:#fff;}.cls-4{fill:#f6da16;}.cls-5{fill:#eb5d32;}.cls-6{fill:#eb5d31;}</style></defs><title>Recurso 2</title><g id="Capa_2" data-name="Capa 2"><g id="Capa_1-2" data-name="Capa 1"><circle class="cls-1" cx="106.93" cy="137.28" r="5.24"/><path class="cls-1" d="M179.09,144.3a5.81,5.81,0,1,0-5.81-5.81A5.81,5.81,0,0,0,179.09,144.3Z"/><path class="cls-1" d="M338.05,268.14c-.94-2.37-3-4.18-6.12-5.39-.09,0-9.92-3.06-12.59-8.44a6,6,0,0,1-.31-4.72c1.34-.65,8.8-4.51,10.79-10.81a10.79,10.79,0,0,0-1.27-9l-.08-.14-.15-.06c-.1-.05-10.55-4.49-21.63,6.35-1.08.37-10.48,3.47-15.07.5a5.59,5.59,0,0,1-2.49-4.55c.09-.72.84-7.28-2.37-11.37a8.27,8.27,0,0,0-5.92-3.14,7.92,7.92,0,0,0-6.62,1.93c-3.19,3.07-2.86,8.54-2.85,8.74v14.78c-7.57-.71-9.92.73-10,.8l-.09.08c-7.72,8.3-49.75,8.56-58.53,8.52,3.72-2.7,5.85-5.72,6.32-9a10.83,10.83,0,0,0-1.7-7.31l25.6.82.33-22c5.67.28,37,1.43,37.51-7.17.47-8.1-10.24-31.75-12.12-35.84,4.82-1.08,34.62-8.33,37.94-22.07,2.83-11.72-19.94-28.41-29.67-35.54-1.5-1.1-2.83-2.08-3.36-2.54,2.35-2.83,21-25.87,22.21-46.5l0-.33-.29-.15c-.18-.09-18.43-9.24-52.06-7.26,1-3.74,4.59-22.06-8.89-49L224.38,8l-.41.13c-1.58.51-38.21,12.56-46.48,23.63-.2-.26-.49-.7-.8-1.15C174,26.5,165.63,14.13,140.2.13L140,0l-.23.12c-.4.2-9.75,5.25-20.81,36.16-1.37.23-6.71,1.46-7.67,6.8-4-1.21-27.17-8-37.72-6l-.34.07-.06.34a127.62,127.62,0,0,0,2.71,46.84C72.06,84.9,51,88.39,45.56,95.43l-.16.2.08.25c.08.28,8.87,27.56,37.14,43.05l0,0a29.76,29.76,0,0,0,12.56,20.16c-1.83,3-10.09,17.84-1,31.06-1.47.63-5.18,2.56-6.53,6.44-1.08,3.12-.34,6.72,2.18,10.72-1.84,2-12,13.63-7.4,25.3l-20-8.23c.36-2.55,2.13-16.38-.11-20.54-1.49-2.77-7.56-6-12.23-4.8-2.8.74-6.11,3.29-6,11.29.05,2.21.08,3.91.1,5.21-3.49-2.28-19.29-12.08-29.44-9.92-3.11.66-4.93,2-5.4,3.86-.93,3.74,3.31,9.48,13,17.54,1.74,1.45,2.52,2.64,2.21,3.35-.89,2-9.5,1.76-14.72,1.1H9.77l-.08,0c-.35.07-8.68,1.9-9.61,6.48-.52,2.57,1.42,5.41,5.76,8.44l.11.08h.12c.54.07,12.48,1.5,17.6.24-.23.24-.49.49-.75.73-3.85,3.73-12.87,12.45-9.12,19.71a6.09,6.09,0,0,0,4.5,3.47c6.55,1.12,16.09-7.34,17.43-8.57H48.52c1.6,1.45,15.09,12.54,68.32,26.54a25.39,25.39,0,0,0,.71,7.11,53.4,53.4,0,0,0-17.36,20.84c-6.28,13.18-10.5,35.75,5,68.5-1.83,2.73-17.55,27.61-7.24,62.58-3.63,1.6-14.26,6.89-17.89,15.76a16.54,16.54,0,0,0,.56,13.6c0,.12,3.81,12.1,21.13,12.85a89.87,89.87,0,0,0,15.82,1.79c3.55,0,6.86-.43,8.93-1.64,1.88,2.06,13.12,12.47,42.65,5.1.26-.05,7.13-1.1,67.67,2.57l.53,0v-.09c.62,0,1.91-.09,3.45-.14,15.37-.58,62.15-2.33,64.7-13.85.94-4.25-3.92-9-14.87-14.67-.56-.44-5.14-3.54-21.91-3.35-1.08-3.44-10.23-30.42-32.27-31.13,1.31-4.16,7.56-28-13.34-48.07,2.47-3.15,20.14-26.77,15.7-52.7-2.74-16-13.23-29.77-31.19-41,9.9.63,52.82,2.5,72.94-10.36A18.91,18.91,0,0,0,296.3,286c.84,2.31,5,12.84,11.69,15.41a8.51,8.51,0,0,0,7.52-.72,5.31,5.31,0,0,0,2.59-3.8c.71-3.91-1.94-9.09-7.87-15.4-.22-.76-1.48-5.59,1.45-8.67a5.66,5.66,0,0,1,.43-.42c2.19,1.83,14.75,11.61,25.49,3.24l.09-.07.05-.11A9.93,9.93,0,0,0,338.05,268.14Z"/><path class="cls-2" d="M119.18,37.25l18,10.55C134.43,51,135.67,58.42,136,60l-5.81,4.92c-10.48,7.27-17.53-1.23-18.47-2.46l.46-18.7C112.78,38.36,118.19,37.38,119.18,37.25Z"/><path class="cls-2" d="M149.54,47c1-2,7.54-15,19.15-11.67a6.55,6.55,0,0,0,.74.77c2.5,2.42,10.1,9.79,6.34,21.92-1,3.19-2.8,5.25-5.38,6.13-7.39,2.52-19-5-20.82-6.22C150,54,150.5,48.52,149.54,47Z"/><path class="cls-2" d="M148.73,47.47c.66.6.38,6.21-.26,11.1-1.25,2.55-2.84,4-4.71,4.29-3.12.49-6.21-2.35-6.77-2.9-.22-1.12-1.61-8.84,1.12-11.64l.1,0,.25-.44C138.55,47.77,140.86,43.94,148.73,47.47Z"/><path class="cls-3" d="M83.34,134.62c0-16.06,13.56-29.12,30.22-29.12A30.13,30.13,0,0,1,142.09,125a34.46,34.46,0,0,0-1.86,29.79h-22.6l-.12.07c-.24.14-5.9,3.5-7.89,8.62C94.55,161.61,83.34,149.4,83.34,134.62Z"/><path class="cls-3" d="M172.27,108.27a33.57,33.57,0,1,1-33.57,33.57A33.61,33.61,0,0,1,172.27,108.27Z"/><path class="cls-4" d="M96,159.61a31.92,31.92,0,0,0,13.25,4.85c-1.42,5,1.33,9.77,8.2,14.14l.13.08h18.14v-1H117.91c-6.44-4.13-9-8.54-7.61-13.11l.41,0,.09-1-.15,0c1.8-4.28,6.47-7.31,7.25-7.8h22.76a34.56,34.56,0,1,0,62-30.44l13.15-10.17-.61-.79-13,10.08a34.79,34.79,0,0,0-18.24-15.19l9.33-16.43-.87-.49L183,109A34.37,34.37,0,0,0,165,108V89.19h-1v19.08a34.73,34.73,0,0,0-21.31,15.63,31.15,31.15,0,0,0-29.17-19.4c-14.71,0-27.07,9.86-30.36,23.09l-13.28-11.4-.65.76L83,128.69a29,29,0,0,0-.61,5.93c0,1,.06,2.07.16,3.09a81.86,81.86,0,0,1-36-41.88c5.93-7.11,29.76-10.57,30-10.6l.55-.08-.14-.54A127.9,127.9,0,0,1,74.06,38c10.55-1.77,33.92,5.14,37.1,6.1l-.46,18.69.09.14c.06.08,4.3,5.88,11.18,5.88a15.36,15.36,0,0,0,8.81-3.08l5.72-4.84c.91.84,3.55,3,6.52,3a5.42,5.42,0,0,0,.89-.07c2.22-.35,4.06-2,5.48-4.88,2.35,1.56,10.59,6.66,17.62,6.66a11.37,11.37,0,0,0,3.7-.57c2.91-1,4.93-3.27,6-6.78,3.93-12.72-4-20.41-6.61-22.93l-.29-.29.57-.3-1.18-.36c-12.24-3.71-19.25,9.36-20.51,12-7-3-10-.44-10.83.63l-18-10.51C129.85,8.75,138.51,2.1,140,1.14c25,13.83,33.2,26,35.89,30,1,1.46,1.38,2.06,2,1.72l.11-.06.06-.1c7.07-10.29,41.67-22.11,45.84-23.5,14.64,29.54,8.51,48.37,8.45,48.56l-.24.71.74-.05c31.47-2,49.48,5.81,51.95,7-1.44,20.65-20.41,43.74-22.08,45.73l-.17,0-.09.33c-.13.49,0,.62,3.92,3.49,8.74,6.4,32,23.43,29.29,34.5-3.39,14-37.44,21.39-37.79,21.46l-.61.13.26.57c.13.27,12.78,27.49,12.29,35.93-.39,6.7-26.82,6.74-37,6.19l-.52,0-.34,22-25.4-.81c-.64-.62-3.25-3-6.07-3.48,0,0-.08-.07-.1-.1-1.27-1.93,1.16-14.39,3.23-22.9,1.69,2,6.52,6.95,12.62,6.95h.07c4.39,0,8.47-2.64,12.14-7.76s4.14-10.48,1.3-15.05c-3.51-5.63-10.91-8.57-15.61-7.79a5.18,5.18,0,0,0-4.58,3.93l1,.23a4.24,4.24,0,0,1,3.77-3.17c4.3-.72,11.35,2.12,14.6,7.33,1.85,3,3.14,7.8-1.26,13.94-3.47,4.85-7.28,7.31-11.33,7.34h-.07c-7,0-12.41-7.27-12.46-7.34l-.63-.86-.26,1c-.55,2.21-5.32,21.65-3.34,24.67a1.51,1.51,0,0,0,.32.34,10.43,10.43,0,0,1-3.88,7.06c-9.77,8.2-34.32,5.86-34.62,5.84-3.15,0-5.48-.84-6.94-2.48a7.57,7.57,0,0,1-1.66-5.37,30.11,30.11,0,0,0,1.49-10.67h-1c.08,8.2-1.77,13.42-5.51,15.5-4.57,2.55-10.8-.3-13.08-1.52.44-.18.72-.32.8-.35l.13-.06.07-.12c11.49-17.36-2.93-34.16-3-34.25-10.55-18-34.5-16.27-37.46-16C86.18,177.06,94.25,162.52,96,159.61Z"/><path class="cls-5" d="M88.61,196.88c1.42-4.12,6-5.88,6.46-6,1.08-.13,26-2.72,36.77,15.56.14.16,14,16.31,3.08,33-1.51.69-16.38,7.17-25.23.47a52.65,52.65,0,0,0,10-7.6c.21-.22,5-5.52,4.41-10.32a6.21,6.21,0,0,0-3-4.52c-7.42-4.88-14.49,4.73-14.58,4.87s-1.63,2.69-3.93,3.18a3.76,3.76,0,0,1-3-.75,1.69,1.69,0,0,1-.72-1.33c-.26-3.4,6-10.36,8.45-12.76l.19-.18,0-.26c-.84-4.47-2.6-7.16-5.24-8-4.49-1.45-10,3-11.6,4.38C88.31,202.91,87.65,199.65,88.61,196.88Z"/><path class="cls-6" d="M90.82,207.69c.19-.17,6.47-6,11.06-4.56,2.21.71,3.73,3.06,4.51,7-1.35,1.35-8.89,9.11-8.56,13.36A2.66,2.66,0,0,0,99,225.53a4.72,4.72,0,0,0,3.81.92c2.73-.58,4.5-3.52,4.55-3.61s6.58-8.94,13.2-4.59a5.3,5.3,0,0,1,2.54,3.81c.54,4.34-4.11,9.48-4.13,9.5-8.32,7.86-16,11.47-22.79,10.76A15,15,0,0,1,86,236.69C75.52,223.33,90.51,208,90.82,207.69Z"/><path class="cls-4" d="M35.34,261l-.14.14c-.11.09-10.29,9.56-16.73,8.44a5.08,5.08,0,0,1-3.78-2.94c-3.41-6.6,5.23-15,8.93-18.53,1.77-1.71,2.14-2.07,1.82-2.57s-.86-.23-1.24-.08c-4,1.54-16.51.14-17.89,0-3.91-2.75-5.68-5.22-5.25-7.36.75-3.72,7.92-5.48,8.76-5.68,2.57.32,14.25,1.59,15.68-1.7.52-1.2-.29-2.68-2.49-4.51-11.45-9.58-13.18-14.28-12.62-16.53.37-1.51,1.93-2.56,4.63-3.13,10.21-2.16,27.07,8.7,29.15,10.08,0,1.57.08,2.45.14,2.94v.06h0c.08.58.21.58.5.57s.34,0,.41-.58h.06c0-.06,0-.23,0-.48.06-1.17,0-3.64-.1-8.87-.11-5.81,1.69-9.38,5.21-10.3,4.16-1.1,9.78,1.86,11.09,4.3,2.27,4.2,0,20.15-.05,20.31l-.06.39,5.34,2.2C63,228.83,52.06,235.78,48.29,261Z"/><path class="cls-2" d="M205.67,291.57l-2.17-.19,1.87,1.12c18.77,11.2,29.7,25.11,32.48,41.33,4.64,27.09-15.31,51.68-15.76,52.23-2.48,2.42-5.53,5.09-6.14,5.21a.3.3,0,0,1,.25.08l-.64.76c.34.3.91.78,6.9-5,22.1,21.19,13.18,46.74,12.88,47.59a37.9,37.9,0,0,1-9,10.15l.59.81a38.11,38.11,0,0,0,9.15-10.24c22.57.4,31.42,29.45,31.8,30.74v3.19h1v-2.77c17.05-.17,21.14,3.11,21.17,3.15l.1.06c10.38,5.33,15.22,9.9,14.41,13.59-1.59,7.15-23,11.54-63.76,13.07-2.24.08-3.34.12-3.89.21h0c-61.11-3.71-67.67-2.6-68-2.55-29.68,7.41-40.69-3.68-41.83-4.95v-6.56h-1v6.48c-5.76,3.59-24-.18-24.23-.23-16.66-.73-20.25-12-20.31-12.21A15.63,15.63,0,0,1,81,463.74c4.14-10.13,18.4-15.65,18.54-15.71l-.35-.93-.3.11c-10.67-36.36,7.11-61.6,7.3-61.85l.17-.24-.13-.27C90.76,352.34,94.88,330,101.07,317c6.7-14.1,17.21-20.61,17.31-20.67l.32-.2-.09-.36c-3.41-12.49,5.52-28.46,5.61-28.62l-.86-.5c-.3.53-5.83,10.43-6.48,20.9C65.11,273.91,51,262.81,49.26,261.34c4.1-27.83,17.26-33.1,18.78-33.62l15,6.17a20,20,0,0,0,2.13,3.39,15.78,15.78,0,0,0,10.88,6c.6.06,1.21.09,1.82.09a23.38,23.38,0,0,0,10.89-3,17.39,17.39,0,0,0,11.18,3.54,31.26,31.26,0,0,0,6.06-.64c-.28,3.17-1.06,15.75,4.06,17.35l.3-1c-4-1.25-3.79-12.05-3.34-16.6a45,45,0,0,0,6.49-2c1,.62,5.42,3.07,9.95,3.07a9.74,9.74,0,0,0,4.79-1.16,9.53,9.53,0,0,0,3.62-3.74,7.84,7.84,0,0,0,1.83,4c1.65,1.87,4.23,2.82,7.63,2.82h0c.37,0,3.75.36,8.41.36,8.24,0,20.45-1,26.91-6.42a11.43,11.43,0,0,0,4.2-7.52,13.44,13.44,0,0,1,5.14,3.21,10.13,10.13,0,0,1,2.08,7.37c-.49,3.36-2.92,6.45-7.21,9.2l-1.39.9,1.65,0c.31,0,1.58,0,3.57,0,11.93,0,49.52-.66,57.25-8.8.35-.17,2.78-1.25,9.44-.6V269.8c0,.21.82,5.15,7.46,12.45C255.81,295.69,206.17,291.61,205.67,291.57Z"/><path class="cls-4" d="M336.88,274.91c-11.05,8.49-24.29-3.42-24.42-3.55l-.31-.28-.33.26a6.53,6.53,0,0,0-.87.78c-3.58,3.77-1.72,9.53-1.63,9.77l.11.19c7.15,7.58,8.13,12.12,7.69,14.6A4.28,4.28,0,0,1,315,299.8a7.61,7.61,0,0,1-6.7.67c-6.95-2.67-11.2-15.11-11.24-15.23l-.15-.44-.45.11A18.12,18.12,0,0,1,281,281.36l-.29-.26-.32.21-.65.42c-6.53-7.11-7.33-12-7.34-12V228c0-.05-.31-5.23,2.54-8a7,7,0,0,1,5.83-1.65,7.3,7.3,0,0,1,5.23,2.75c3.06,3.91,2.17,10.61,2.16,10.68v.11a6.61,6.61,0,0,0,2.95,5.36c5.28,3.41,15.62-.27,16.06-.43l.18-.11c9.91-9.77,19.21-6.77,20.47-6.29a9.74,9.74,0,0,1,1.08,8c-1.55,4.94-7,8.4-9.32,9.71l.1-.26-1.3.89a14.9,14.9,0,0,1-6.11,1.92l.12,1a18,18,0,0,0,5.47-1.49,6.89,6.89,0,0,0,.62,4.51c2.87,5.77,12.78,8.83,13.17,8.95,2.82,1.09,4.67,2.7,5.51,4.8A9,9,0,0,1,336.88,274.91Z"/><path class="cls-1" d="M290.87,268.08c-2.35,1.13-5.43.53-9.15-1.77l-.53.85a14,14,0,0,0,7.15,2.48,6.66,6.66,0,0,0,3-.66c4.2-2,5-7.94,5-8.19l-1-.12C295.29,260.73,294.57,266.3,290.87,268.08Z"/><rect class="cls-7" x="87.23" y="100.15" width="1" height="14.11" transform="translate(-42.07 58.81) rotate(-30.26)"/><rect class="cls-7" x="111.16" y="89.19" width="1" height="14.77"/><path class="cls-1" d="M216.93,195l.22,11.06,1,0-.22-11c2.07.34,4,1.89,5.63,4.64l.86-.51c-2-3.3-4.34-5.05-7-5.2-3.67-.21-6.39,2.71-6.5,2.83l.73.68A8.58,8.58,0,0,1,216.93,195Z"/><path class="cls-1" d="M36.37,235.43l-1-.06c0,.48-.63,11.69,5.82,12.77l.17-1C35.8,246.22,36.37,235.54,36.37,235.43Z"/><circle class="cls-1" cx="106.93" cy="137.28" r="4.24"/><path class="cls-1" d="M179.09,133.69a4.81,4.81,0,1,1-4.81,4.8A4.8,4.8,0,0,1,179.09,133.69Z"/><path class="cls-7" d="M149.26,401c-.13.14-12.86,14.25-3.86,38.26l.94-.35c-8.78-23.41,3.52-37.1,3.65-37.23Z"/></g></g></svg>