<svg id="Capa_1" data-name="Capa 1" xmlns="http://www.w3.org/2000/svg" viewBox="0 0 566.93 566.93"><defs><style>.cls-1{fill:#1d1d1b;}.cls-1,.cls-2,.cls-3,.cls-4,.cls-5,.cls-6,.cls-7{stroke:#1d1d1b;stroke-miterlimit:10;}.cls-2{fill:#0e7dc1;}.cls-3{fill:#fff;}.cls-4{fill:#ffd522;}.cls-5{fill:#eb5a35;}.cls-6{fill:#d6e3a0;}.cls-7{fill:#eb5e35;}</style></defs><title>Marge</title><path class="cls-1" d="M299,217.27v4.12h1v-4.13a6,6,0,0,1,1.92.63l.46-.88a6.23,6.23,0,0,0-2.88-.79h0a5.42,5.42,0,0,0-4.58,3l.9.44A4.53,4.53,0,0,1,299,217.27Z"/><path class="cls-1" d="M359.61,60.92c.76-1.34,3.47-6.69,1.41-11.6-1.47-3.51-5-6-10.59-7.25a13.07,13.07,0,0,0-3.87-9.35c-3.24-3-8.23-4.08-14.82-3.2-.75-1.09-3.76-5-8.57-5.65-3.56-.5-7.24.91-10.93,4.18-1.27-.54-6.19-2.33-10.51-.24-2.86,1.39-4.83,4.17-5.86,8.29-1.64-.11-7.32-.2-10.59,3.43-2.14,2.37-2.78,5.83-1.91,10.28a9.08,9.08,0,0,0-6.57,2.06c-2.77,2.37-4.09,6.54-3.92,12.4a9,9,0,0,0-5.64,3.25c-2.29,2.84-3,7.13-2.06,12.74a8.06,8.06,0,0,0-4.27,3.16c-2,2.85-2.54,7-1.56,12.37-1.92.69-9.05,4.08-6.58,16-1.52,1-7.62,5.7-3.11,14.84-1.87,1-8.07,5.2-4.29,16.59-1.71.69-6.7,3.88-4,16.93-1.27,1-6,5.41-2.9,15-.8,1.26-4.55,8,1.48,13.75a14.31,14.31,0,0,0-1.12,1.67l-4.37-3.7-.65.76,4.54,3.85a14.77,14.77,0,0,0-1.53,6.54,15,15,0,0,0,4.91,11.07c-1.87,1.75-9.68,9.3-10.3,13.23-.69,4.46,16.37,9.51,19.8,10.47l.11,0h.1c.58,1.32,3.14,6.41,8.1,5.93v12.74a4.58,4.58,0,0,0-3.63-1.79,4.62,4.62,0,0,0-2.41,8.57,5.07,5.07,0,0,0,1.93,7.19c-4.76,13.74-9.08,20.22-10.19,21.75l-.06,0-.27.48c-9,16-.41,27.05,3.29,30.77a195.85,195.85,0,0,1-5.82,44.3,24.8,24.8,0,0,0,0,15.41l2.24,4.18c-1.06,3.77-2.7,13.13-5.41,36.49-2.2,19-4,38.19-4.06,38.38l0,.32,3.18,1.84-1.56,40.48L214.7,517.47,203.59,525l.36.43c.24.27,3.6,4,12.24,4,6.27,0,15.32-2,28-8.67v3.22l.55-.06c.29,0,7.27-.74,10.7-5.88,3.25-4.88.54-10.38.08-11.25l-.34-8.12-.11-.08c-.44-2,4.7-21.84,8.16-34.3l26,1.77,2.3,44.55-11.88,16.68-7.32,8.48-.1.19a4.94,4.94,0,0,0,1.24,4.57c1.37,1.38,3.65,2.07,6.81,2.07A43.88,43.88,0,0,0,291,540.85c.46-.19,11.49-4.77,15.69-9.81l.06-.09a12.88,12.88,0,0,0,1.2-4.77l1.4,2.09.42-.32c.07-.05,6.74-5.17,3.18-16.55l-.34-1.09-.24.41a45.18,45.18,0,0,0-2.22-4l3.43-41.08c1.06-.55,5-2.72,6.65-5.61,1.78-3.17,1.59-88.45,1.56-99.86l.15,0c2.25-.7,3.7-3.34,4.32-7.85a1.73,1.73,0,0,0-2.29-1.88v-6.09c1.52-1,9.25-6.9,17.64-28.27h0V316c.11-.26.21-.51.31-.78h0c.83-2.67,3-10.93,0-15.45-.37-.54-.71-1.09-1.06-1.66-3.09-5-7.33-11.8-43.24-40.16a5,5,0,0,0-.4-9.9,4.87,4.87,0,0,0-2.25.56l.11-10.15a5.93,5.93,0,0,0,1.48.19c1.78,0,4.31-.81,6.55-4.47,1.49-.54,11.7-4.77,9.13-16.5,1.59-.79,7.81-4.3,6.8-10.33-.67-3.95-1.55-5.67-2.23-6.41,1.63-.94,5.4-3.51,6.8-7.9,1-3.17.55-6.62-1.34-10.27,1.83-1.3,9.56-7.55,4.34-17.53,2.14-1.08,10.06-6,5.89-17.49,2-1.08,10.08-6.34,5.73-17.86a9.17,9.17,0,0,0,5.34-3.65c1.92-2.81,2.3-6.76,1.1-11.73a14,14,0,0,0,6.86-6.83c1.22-2.9,1.12-6.19-.29-9.76,1.63-.68,6.8-3.17,8.32-7.91.94-2.91.3-6.11-1.9-9.5,1.41-.72,5.12-3,6.16-7.15C364.73,69.67,363.32,65.48,359.61,60.92Z"/><path class="cls-2" d="M239,176.11a7.61,7.61,0,0,0,4.56,2.76l.2,6.15-1.62-2.53-.84.54,1.79,2.79a15,15,0,0,0-2.54,2.3C235.6,183.32,238,177.91,239,176.11Z"/><path class="cls-3" d="M237.81,198a14,14,0,0,1,26.08-6.92,14.86,14.86,0,0,0-2.18,13.21c-2.94-.11-13.7-.27-17.25,3a3.62,3.62,0,0,0-1.1,1.78A13.9,13.9,0,0,1,237.81,198Z"/><path class="cls-3" d="M276,185.89a14,14,0,1,1-14,14A14,14,0,0,1,276,185.89Z"/><path class="cls-4" d="M243.31,377.73a24.21,24.21,0,0,1,0-14.72,199.08,199.08,0,0,0,5.86-43.66c.31.27.51.43.53.44,12.91,9.49-2.68,56.36-3.94,60a2.43,2.43,0,0,0-.7,1.16Z"/><path class="cls-5" d="M254.59,517.44c-2.63,3.95-7.74,5.09-9.42,5.37v-3.76l-.74.4c-26.48,14.25-37.15,7.47-39.3,5.67l9.89-6.66a15,15,0,0,0,7.75,1.88c12.53,0,28.95-10.64,32-12.72C255.48,509.09,257.17,513.57,254.59,517.44Z"/><path class="cls-4" d="M254.18,499.07l.31,7.56c-2.5,1.69-26.68,17.58-38.59,11.16l21.84-17.49L239.3,460c5,3.21,19.62,4,22.89,4.17-.58,2.08-2.57,9.33-4.42,16.61C253.94,495.83,253.85,498.43,254.18,499.07Z"/><path class="cls-5" d="M309.61,526.81l-2.69-4,.08,1.8a12.72,12.72,0,0,1-1.08,5.86c-4.07,4.83-15.16,9.44-15.21,9.46-10.75,2.84-14.94,1.51-16.56-.11a3.89,3.89,0,0,1-1-3.5l7-8.14c16.76,6.61,29.35-11,32.19-15.37C314.59,521.23,310.89,525.6,309.61,526.81Z"/><path class="cls-4" d="M309.24,507.12a29.11,29.11,0,0,1,2.49,4.58l.12,0c-1.74,2.86-14.24,22-31.06,15.65L292.41,511l.1-.14-2.31-44.74a83.72,83.72,0,0,0,22.37,0L309.16,507Z"/><path class="cls-6" d="M319.39,459.56c-1.69,3-6.42,5.3-6.47,5.32l-.26.13v.1a83.39,83.39,0,0,1-22.92-.05l-.59-.08v0l-26.29-1.8h0l-.39,0h0c-2.71-.11-19-1-23.11-4.38v-.05L236.2,457c2.84-29.63,7.83-74,10.1-76.24l.24,0,.1-.3c.73-2.08,17.63-51.13,3.66-61.39-.62-.47-14.94-11.63-4.78-30.39,2.93,1.79,19.27,10.25,53.56,1.66.46.3,1.83,1.21,3.73,2.56l1,22.76c0,.33.54,8.13,8.63,15-.68,1-1.41,2-2.21,3l-6.05,8.58a9.35,9.35,0,0,0,0,7.08,7.93,7.93,0,0,0,3.67,4.2c.5.76,2.56,3.7,4.66,3.7a2.06,2.06,0,0,0,.77-.14,2.26,2.26,0,0,0,.61-.35c1,1,3.94,3.67,6.81,3.67h.09C320.93,399.08,320.65,457.13,319.39,459.56Z"/><path class="cls-3" d="M320.84,309.24c0,.09.14,8.62-7.8,20.51-7.67-6.57-8.2-14.15-8.21-14.22l-1-22c4.93,3.55,12.43,9.38,17.23,15.1l-.24.44Z"/><path class="cls-4" d="M340,298.64c.36.58.7,1.14,1.08,1.69,3.18,4.7-.06,14.44-.36,15.32-9,23-17.39,27.92-17.47,28l-.26.14v7.3a17.46,17.46,0,0,0-3.43,3.68l.81.58a15.13,15.13,0,0,1,3.79-3.89.73.73,0,0,1,.79,0,.74.74,0,0,1,.34.73c-.56,4.09-1.78,6.46-3.62,7-2.7.84-6.12-2.3-7.09-3.28.91-1.57.35-4,.31-4.15l-1,.23s.77,3.43-1,4.09c-1.43.53-3.52-2.08-4.25-3.19v-6.68h-1v6a8,8,0,0,1-2.59-3.36,8.51,8.51,0,0,1,0-6.18l6-8.48c10.14-13.05,10.75-22.92,10.78-24.71l.72-.57-.3-.37,3-5.75-.89-.47-2.82,5.39C315,300,303.7,292.15,300.39,289.93l.24-.06-5.08-2.43-.43.9,2.57,1.23c-32.71,7.92-48.83-.19-51.62-1.82,1.21-1.67,5.48-8.09,10.27-21.91a5,5,0,0,0,4.86-1,5.13,5.13,0,0,0,9.39.18,5.12,5.12,0,0,0,9.5-.52,5.11,5.11,0,0,0,9.47-2.08,5.2,5.2,0,0,0,2.94.92,5.14,5.14,0,0,0,5-4.18C332.81,287.06,337.14,294,340,298.64Z"/><path class="cls-7" d="M252.27,254.32a3.63,3.63,0,1,1,7.26,0,3.54,3.54,0,0,1-.41,1.65,5.18,5.18,0,0,0-1.26-.17,5.09,5.09,0,0,0-3.76,1.66A3.63,3.63,0,0,1,252.27,254.32Z"/><path class="cls-7" d="M253.71,260.94a4.14,4.14,0,0,1,8.12-1.14,5,5,0,0,0-1,3.05,5.28,5.28,0,0,0,.09.9,4.13,4.13,0,0,1-7.18-2.81Z"/><path class="cls-7" d="M261.8,262.85A4.15,4.15,0,1,1,266,267,4.15,4.15,0,0,1,261.8,262.85Z"/><path class="cls-7" d="M279.38,262.85a4.15,4.15,0,1,1-4.14-4.14A4.15,4.15,0,0,1,279.38,262.85Z"/><path class="cls-7" d="M288.35,258.21a4.15,4.15,0,1,1,4.15,4.14,4.07,4.07,0,0,1-2.95-1.24,5.15,5.15,0,0,0-1.18-2.58C288.36,258.42,288.35,258.32,288.35,258.21Z"/><path class="cls-7" d="M288.62,261.85a4.15,4.15,0,1,1-4.14-4.14A4.15,4.15,0,0,1,288.62,261.85Z"/><path class="cls-7" d="M301.19,253a4,4,0,0,1-3.72,4,5.13,5.13,0,0,0-4.22-3.83s0-.08,0-.12a4,4,0,0,1,7.95,0Z"/><path class="cls-4" d="M292.24,253s0,0,0,.07a5.11,5.11,0,0,0-4.84,4.55,5.1,5.1,0,0,0-7.78,2.56,5.12,5.12,0,0,0-9,.48,5.13,5.13,0,0,0-4.64-3,5.08,5.08,0,0,0-3.34,1.26,5.12,5.12,0,0,0-2.54-2.66,4.72,4.72,0,0,0,.46-2V237.57l-.59.1c-4.24.77-6.59-3.13-7.39-4.8,1.51.08,4.24.19,7.53.19,8.46,0,20.58-.74,24.91-4.67,1.46.69,1.36,1.8,1.35,1.85l.5.06.49.08a3,3,0,0,0-2.11-3l-1.77-1.93-.73.67,1.5,1.64c-6.5,5.59-31.47,4.11-32.78,4-7.61-2.15-19.46-6.58-19-9.35.57-3.63,8.45-11.2,10.08-12.73.26.21.52.4.8.59a6.19,6.19,0,0,0,1.19,2.85c.25.72,2,2.91,13.3,3.59l.07-1c-11.43-.68-12.41-2.88-12.41-2.88h0l0-.12-.07-.1a5.08,5.08,0,0,1-1.09-2.59l.13-.21-.12-.08a2.5,2.5,0,0,1,.87-1.72c3.42-3.17,14.94-2.83,16.94-2.75A14.95,14.95,0,0,0,291,199.85a14.69,14.69,0,0,0-.49-3.71l5.15-2.69-.46-.88-5,2.59a14.8,14.8,0,0,0-3.25-5.47l3.37-4.63-.81-.59-3.27,4.5a14.93,14.93,0,0,0-7.17-3.76l.18-3.67-1,0-.17,3.56a15.76,15.76,0,0,0-2.07-.16,14.89,14.89,0,0,0-6.22,1.37l-.83-5.82-1,.14.89,6.14a15,15,0,0,0-4.28,3.52,15,15,0,0,0-7.38-6.18l1.91-4.15-.91-.42-1.95,4.24a15,15,0,0,0-4.45-.68,14.29,14.29,0,0,0-1.86.13l.34-3-1-.11-.38,3.25a15.1,15.1,0,0,0-4.09,1.46l-.2-5.82c2.51.1,5.24-1,8.14-3.4a12.26,12.26,0,0,0,13.15-1.31c.77.85,2.92,2.77,7.36,3.77.43.17,2.64.82,11.26.61.64,1.41,3.61,6.38,13.31,5.61-1.63,1.66-3.64,5.36-1.14,12.58a17.33,17.33,0,0,0-.2,15.35,8.2,8.2,0,0,0-2,1.14l.65.76a6.64,6.64,0,0,1,8.19,0c2.42,1.81,2.42,4.91,1.67,7s-2.33,3.91-4.48,3.84a13.69,13.69,0,0,1-7-2l-.58.81a8.41,8.41,0,0,0,1.34.75L294,249.29A5,5,0,0,0,292.24,253Z"/><path class="cls-2" d="M362.85,73.11c-1.14,4.61-6.07,6.71-6.12,6.73l-.57.24.35.51c2.28,3.3,3,6.37,2.1,9.11-1.62,5-8.13,7.44-8.19,7.47l-.5.17.21.49c1.48,3.5,1.64,6.68.48,9.46-1.88,4.5-6.66,6.45-6.71,6.47l-.41.16.11.42c1.24,4.87.95,8.68-.85,11.32a8.18,8.18,0,0,1-5.27,3.35l-.65.09.25.6c5.08,12.51-5,17.16-5.41,17.35l-.43.2.17.44c4.8,12.57-5.24,16.69-5.67,16.86l-.54.21.28.5c5.94,10.64-3.7,16.66-4.11,16.91l.08.14-.42.24c2.07,3.66,2.62,7.08,1.63,10.18-1.63,5.12-7,7.68-7,7.7l-1.87.85,2,.1s1.35.45,2.3,6.13c1,6-6.5,9.4-6.58,9.43l.06.13-.43.11c3,11.71-7,15.62-8.34,16.07l-.19-.11c-2.95,5.26-6.33,4.69-7.47,4.3l.14-12.49a16.69,16.69,0,0,0,5.18,1h.17c2.25,0,4.32-1.75,5.29-4.51.86-2.42.85-6-2-8.14a7.36,7.36,0,0,0-6.43-1.42,16.56,16.56,0,0,1,.21-14.73l.13-.21-.08-.22c-3.57-10.06,1.82-12.61,2.05-12.71l3.37-1.47-3.64.52c-11.7,1.66-14.07-4.81-14.16-5.08l-.12-.35h-.37c-9.31.24-11.14-.51-11.2-.53l-.12,0c-5.3-1.19-7.12-3.77-7.14-3.79l-.31-.47-.43.36a11.07,11.07,0,0,1-12.69,1.37l-.31-.18-.27.23c-3.13,2.62-6,3.73-8.54,3.3a6.8,6.8,0,0,1-4.35-2.89c-3.45-10.25,2.47-14,2.72-14.19l.3-.18-.07-.35c-3.09-14.51,3.63-16.22,3.7-16.24l.55-.12-.19-.53c-4.43-12.68,3.69-15.9,4-16l.53-.19-.26-.51c-5.12-9.75,2.47-14,2.79-14.16l.33-.18-.08-.36C251,99,259.66,96.71,260,96.62l.47-.11-.09-.47c-1-5.28-.59-9.32,1.3-12a6.94,6.94,0,0,1,4.12-2.88l.5-.08-.09-.5c-1-5.53-.38-9.7,1.77-12.39a8,8,0,0,1,5.41-2.94l.5,0,0-.5c-.24-5.78,1-9.84,3.54-12.07a8.33,8.33,0,0,1,6.47-1.75l.75.14-.17-.74c-1-4.45-.48-7.84,1.53-10.08,3.42-3.8,10.11-3.07,10.17-3.07l.45,0,.1-.43c.93-4,2.76-6.74,5.42-8,4.48-2.16,9.91.35,10,.38l.3.14.25-.22c3.54-3.21,7-4.61,10.35-4.15,5,.69,8,5.41,8.06,5.46l.17.27.32,0c6.43-.91,11.24.06,14.3,2.9,3.85,3.56,3.55,8.93,3.55,9l0,.43.42.09c5.45,1.2,8.91,3.47,10.29,6.74,2.13,5.07-1.48,10.95-1.52,11l-.19.31.23.28C362.28,65.69,363.7,69.67,362.85,73.11Z"/><circle class="cls-1" cx="249.08" cy="197.71" r="2.78"/><path class="cls-1" d="M278.73,202.21a2.86,2.86,0,1,0-2.86-2.85A2.86,2.86,0,0,0,278.73,202.21Z"/></svg>