<svg xmlns="http://www.w3.org/2000/svg" viewBox="0 0 271.98 238.28"><defs><style>.cls-1{fill:#fff;}.cls-1,.cls-2,.cls-3,.cls-4,.cls-5{stroke:#1d1d1b;stroke-miterlimit:10;}.cls-2{fill:none;}.cls-3{fill:#a3464a;}.cls-4{fill:#bd1822;}.cls-5{fill:#1d1d1b;}</style></defs><title>Recurso 3</title><g id="Capa_2" data-name="Capa 2"><g id="Capa_1-2" data-name="Capa 1"><path class="cls-1" d="M224.39,85.53s28.71-24.85,44-8-31.74,51.84-31.74,51.84"/><path class="cls-1" d="M83.63,173.68s-42.5-61.41-3-132.64,155.75-45.36,158,52.27c2.88,124.75-51.25,139.75-109.5,144.08C40.5,244,1.86,165.45.63,147.31-2.15,106.37,40.14,187.4,83.63,173.68Z"/><path class="cls-2" d="M124.58,98.82S99.78,72.4,82.13,85.61,106,137,106,137"/><path class="cls-3" d="M134,105.3s40.12,35,74.26,5.53C238,85.12,226.05,192.48,177,184,156,180.31,126.94,165,134,105.3Z"/><path class="cls-4" d="M182.18,183.44c17.83-48-46.3-37.65-46.3-37.65s5.69,18.29,14.23,24.54,5.58,6.77,20.2,11.11S182.18,183.44,182.18,183.44Z"/><path class="cls-1" d="M167.7,121.68l-7.1,20.19s-17-12.39-9.48-25.75C151.12,116.12,163.22,121.85,167.7,121.68Z"/><path class="cls-1" d="M166.57,125.89l3.62,7.38,2-9.92,5,12.67,5.58-12.67,6.92,8.2,2.75-10.39,7,6.11L201,117.12l5.44,4.65,1.83-9.94,5.67,19.72s8.68-11.21,3.64-24.59"/><ellipse class="cls-5" cx="149.18" cy="67.81" rx="11.98" ry="18.79"/><ellipse class="cls-5" cx="195.9" cy="66.13" rx="11.98" ry="18.79"/><ellipse class="cls-1" cx="152.51" cy="56.74" rx="3.33" ry="5.23"/><ellipse class="cls-1" cx="199.24" cy="54.79" rx="3.33" ry="5.23"/><path class="cls-1" d="M128.94,44.35s20,24.08,41.25-.9c0,0,30.5,24.62,41.5-1.43"/><path class="cls-2" d="M208.44,111.43s-13.72,13.34-40.74,10.25"/></g></g></svg>