<svg xmlns="http://www.w3.org/2000/svg" viewBox="0 0 215.73 166.52"><defs><style>.cls-1{fill:#fad4d2;}.cls-1,.cls-2,.cls-3,.cls-4{stroke:#1d1d1b;stroke-miterlimit:10;}.cls-2{fill:#1c0a07;}.cls-3{fill:#060404;}.cls-4{fill:none;}.cls-5{fill:#f5a89d;}</style></defs><title>UglyWorm</title><g id="Capa_2" data-name="Capa 2"><g id="Capa_1-2" data-name="Capa 1"><path class="cls-1" d="M.86,118.25s2.56-16.24,11.34-9c3.95,3.26,15.59,17.18,28.76,24.51a39.54,39.54,0,0,0,8.39,3.57c8.47,2.39,17,.78,24.18-9.08,8.42-11.62,38.33-40.33,75.33-43,20.23-1.46,29.3-20.14,34.45-39,4.28-15.61,6-31.24,8.89-37.36,3.55-7.62,18-14.34,22.33,0,2,6.59-.85,17-1.86,28.37-2,22.83-6.9,50.72-22.47,67.63-23.34,25.33-26.1-13.34-98,44.33-20.53,16.47-37.34,19.12-50.7,15.12a43.45,43.45,0,0,1-12.7-6.29C7.19,142.82-1.45,111.45.86,118.25Z"/><ellipse class="cls-2" cx="198.91" cy="19.55" rx="1.72" ry="1.51"/><ellipse class="cls-3" cx="205.73" cy="19.55" rx="1.72" ry="1.51"/><path class="cls-4" d="M197.19,27.89s4,9.23,8.54.74"/><path class="cls-5" d="M185.55,38.87c9.83,3.13,24.91,2,25.87,2.59s.66,7.13-.09,7.23S193,48.69,183.79,45Z"/><path class="cls-5" d="M161.35,82.1c-2.68,1.83,15.93,31,17.13,31.05-.69.77-8.91,2.51-9.2,2.07-1.13-1.67-14.77-17-15.47-30.79C153.81,84.43,162.68,81.19,161.35,82.1Z"/><path class="cls-5" d="M138.38,86.51c-2.65,1.8,14.34,28.54,15.5,28.51-.69.74-8.69,2.64-9,2.24-1-1.53-13.68-15.38-13.9-28.32C131,88.94,139.7,85.61,138.38,86.51Z"/><path class="cls-5" d="M65.61,135.86c-4.55,2.74,13.14,23.59,12.49,23.58-3-.06-7.9,2.68-8.13,2.35-.84-1.26-11.5-12.46-11.07-23.5C58.9,138.29,66.87,135.09,65.61,135.86Z"/><path class="cls-5" d="M40.66,134c-4.75-2.36-12.88,23.73-13.22,23.18-1.57-2.58-6.49-5.24-6.33-5.6.6-1.39,4.36-16.39,13.9-21.93C35,129.68,42,134.69,40.66,134Z"/></g></g></svg>